<svg width="144" height="52" viewBox="0 0 144 52" fill="none" xmlns="http://www.w3.org/2000/svg">
<path d="M0 45.0002L1.1875 2.4585H14.5417L15.8125 45.0002H0Z" fill="#C31D1D"/>
<path d="M34.8086 45.3958C31.668 45.3958 28.8138 44.8698 26.2461 43.8125C23.6732 42.7448 21.6263 40.9792 20.1003 38.5208C18.569 36.0625 17.8086 32.7292 17.8086 28.5208C17.8086 24.3542 18.569 21.0365 20.1003 18.5625C21.6263 16.0781 23.6732 14.2708 26.2461 13.1458C28.8138 12.0104 31.668 11.4375 34.8086 11.4375C38.0013 11.4375 40.8815 12.1198 43.4544 13.4792C46.0221 14.8281 48.0586 16.7656 49.5586 19.2917C51.069 21.8073 51.8294 24.8854 51.8294 28.5208C51.8294 32.3281 51.069 35.4896 49.5586 38C48.0586 40.5 46.0221 42.3646 43.4544 43.5833C40.8815 44.7917 38.0013 45.3958 34.8086 45.3958ZM31.7669 31.4375C31.7669 32.5938 32.0638 33.4063 32.6628 33.875C33.2565 34.3333 33.9753 34.5625 34.8086 34.5625C35.694 34.5625 36.4388 34.3021 37.0378 33.7708C37.6315 33.2448 37.9336 32.4688 37.9336 31.4375C37.9336 30.5104 37.6315 29.7917 37.0378 29.2917C36.4388 28.7813 35.694 28.5208 34.8086 28.5208C33.9753 28.5208 33.2565 28.7292 32.6628 29.1458C32.0638 29.5625 31.7669 30.3281 31.7669 31.4375Z" fill="#C31D1D"/>
<path d="M55.7402 37.5C55.7402 37.5 56.1829 37.7031 57.0736 38.1042C57.959 38.4948 59.2246 38.8906 60.8652 39.2917C62.5007 39.6823 64.4329 39.9271 66.6569 40.0208C68.2402 40.0625 69.4382 39.8021 70.2611 39.2292C71.0788 38.6458 71.6361 37.9479 71.9277 37.125C72.2194 36.3073 72.3861 35.5833 72.4277 34.9583C71.4954 35.6667 70.3965 36.2604 69.1361 36.7292C67.8704 37.1875 66.3965 37.4479 64.7194 37.5C62.2871 37.5833 60.3861 37.2708 59.0111 36.5625C57.6361 35.8542 56.6204 34.8906 55.9694 33.6667C55.3288 32.4479 54.9173 31.125 54.7402 29.7083C54.5736 28.2917 54.4902 26.9271 54.4902 25.6042C54.4902 22.5937 55.1986 20.1198 56.6152 18.1875C58.0319 16.2604 59.9902 14.8437 62.4902 13.9375C64.9902 13.0208 67.8548 12.5625 71.0944 12.5625H87.9902V26.4583C87.9902 30.1406 87.9173 33.1771 87.7819 35.5625C87.6413 37.9531 87.2923 39.9375 86.7402 41.5208C86.1986 43.0938 85.3236 44.4531 84.1152 45.6042C82.9173 46.7552 81.2611 47.9271 79.1361 49.125C77.4538 50.0938 75.5736 50.7188 73.4902 51C71.4069 51.2917 69.3236 51.3646 67.2402 51.2292C65.1569 51.1042 63.2507 50.875 61.5319 50.5417C59.8079 50.2083 58.4121 49.8854 57.3444 49.5833C56.2715 49.276 55.7402 49.125 55.7402 49.125V37.5ZM68.3861 27.7917C68.3861 28.625 68.6673 29.2396 69.2402 29.625C69.8079 30 70.5163 30.1875 71.3652 30.1875C72.2507 30.1875 72.9798 29.9896 73.5527 29.5833C74.1361 29.1823 74.4277 28.5833 74.4277 27.7917C74.4277 27.0833 74.1361 26.5417 73.5527 26.1667C72.9798 25.7917 72.2507 25.6042 71.3652 25.6042C70.5163 25.6042 69.8079 25.7604 69.2402 26.0625C68.6673 26.3698 68.3861 26.9479 68.3861 27.7917Z" fill="#C31D1D"/>
<path d="M90.6387 45L91.7012 12.7083H105.785L106.785 45H90.6387ZM93.222 5.39583C93.222 3.88542 93.7272 2.60417 94.7428 1.5625C95.7689 0.520833 97.0345 0 98.5345 0C100.045 0 101.326 0.520833 102.368 1.5625C103.41 2.60417 103.93 3.88542 103.93 5.39583C103.93 6.85417 103.41 8.10417 102.368 9.14583C101.326 10.1875 100.045 10.7083 98.5345 10.7083C97.0345 10.7083 95.7689 10.1875 94.7428 9.14583C93.7272 8.10417 93.222 6.85417 93.222 5.39583Z" fill="#C31D1D"/>
<path d="M109.445 45.0002L110.362 12.7085H121.404L121.945 19.8127C122.471 18.6616 123.201 17.4793 124.133 16.271C125.06 15.0522 126.279 14.0158 127.779 13.1668C129.289 12.3231 131.154 11.896 133.362 11.896C135.888 11.896 137.867 12.3908 139.299 13.3752C140.742 14.3491 141.799 15.62 142.466 17.1877C143.133 18.7606 143.555 20.4741 143.737 22.3335C143.914 24.1981 144.008 26.0366 144.008 27.8543V45.0002H128.508L128.445 31.5835C128.445 30.6564 128.237 29.9481 127.82 29.4585C127.404 28.9585 126.904 28.6668 126.32 28.5835C125.747 28.5002 125.247 28.6252 124.82 28.9585C124.404 29.2918 124.195 29.8335 124.195 30.5835L124.466 45.0002H109.445Z" fill="#C31D1D"/>
</svg>
