<svg width="310" height="79" viewBox="0 0 310 79" fill="none" xmlns="http://www.w3.org/2000/svg">
<mask id="mask0_1_354" style="mask-type:luminance" maskUnits="userSpaceOnUse" x="0" y="0" width="310" height="65">
<path d="M309.333 0.333344H0V64.3333H309.333V0.333344Z" fill="white"/>
</mask>
<g mask="url(#mask0_1_354)">
<path d="M2.62335 58.9558L2.01918 34.8308L2.47751 17.4141H13.5817L13.915 20.7475C14.8004 19.5548 15.9775 18.5496 17.4358 17.7266C18.8942 16.9089 20.7067 16.4975 22.8733 16.4975C27.2171 16.4975 30.6025 17.8204 33.0192 20.4558C35.4358 23.0808 36.5921 27.0756 36.4983 32.435C36.4983 36.0339 36.0713 39.1329 35.2275 41.7266C34.3942 44.31 32.9879 46.2891 31.0192 47.6641C29.0452 49.0391 26.3577 49.7266 22.9567 49.7266C21.2171 49.7266 19.6963 49.4871 18.3942 48.9975C17.0869 48.5131 15.9463 47.8673 14.9775 47.06L14.6442 58.9558H2.62335ZM16.8317 36.1641C16.8317 37.1798 17.1286 37.9454 17.7275 38.4558C18.3213 38.9714 19.0452 39.2266 19.8942 39.2266C20.7379 39.2266 21.4463 38.9975 22.0192 38.5391C22.5869 38.0704 22.8733 37.2787 22.8733 36.1641C22.8733 35.0964 22.5869 34.3516 22.0192 33.935C21.4463 33.5183 20.7379 33.31 19.8942 33.31C19.0452 33.31 18.3213 33.5704 17.7275 34.0808C17.1286 34.5808 16.8317 35.2787 16.8317 36.1641Z" fill="#C31D1D"/>
<path d="M52.3778 49.7891C49.5862 49.7891 47.0914 49.2631 44.8987 48.2058C42.7164 47.1381 40.9924 45.3933 39.732 42.9766C38.4664 40.56 37.8362 37.2891 37.8362 33.1641C37.8362 29.1381 38.6956 25.9141 40.4195 23.4975C42.1539 21.0808 44.4612 19.3308 47.3362 18.2475C50.2112 17.1641 53.3362 16.6225 56.7112 16.6225C59.7216 16.6225 62.4091 17.2371 64.7737 18.4558C67.1487 19.6798 69.0237 21.4037 70.3987 23.6225C71.7737 25.8308 72.4091 28.4454 72.3153 31.4558L71.857 49.7266H60.7528L60.4195 45.5391C59.5862 46.7371 58.4299 47.7423 56.9612 48.56C55.5028 49.3829 53.9716 49.7891 52.3778 49.7891ZM51.3987 36.1641C51.3987 37.2787 51.6799 38.0548 52.2528 38.4975C52.8362 38.9454 53.5445 39.1641 54.3778 39.1641C55.2216 39.1641 55.9299 38.9246 56.5028 38.435C57.0862 37.935 57.3778 37.1798 57.3778 36.1641C57.3778 35.1954 57.0862 34.4506 56.5028 33.935C55.9299 33.4246 55.2216 33.1641 54.3778 33.1641C53.5445 33.1641 52.8362 33.3881 52.2528 33.8308C51.6799 34.2787 51.3987 35.0548 51.3987 36.1641Z" fill="#C31D1D"/>
<path d="M88.2762 49.7891C84.9012 49.7891 82.2605 48.9298 80.3595 47.2058C78.4532 45.4714 77.5053 42.8725 77.5053 39.4141V32.5808L74.3178 31.31V17.2891H77.5053L77.4428 7.85164L92.9845 6.66413L92.5887 17.2891H98.1095V32.5808H92.1928L92.1303 36.1641C92.1303 36.7475 92.3907 37.0391 92.922 37.0391H98.1095V48.3933C96.6928 48.8829 95.2814 49.2371 93.8803 49.4558C92.4897 49.6798 90.6199 49.7891 88.2762 49.7891Z" fill="#C31D1D"/>
<path d="M114.724 49.7891C111.349 49.7891 108.708 48.9298 106.807 47.2058C104.901 45.4714 103.953 42.8725 103.953 39.4141V32.5808L100.765 31.31V17.2891H103.953L103.89 7.85164L119.432 6.66413L119.036 17.2891H124.557V32.5808H118.64L118.578 36.1641C118.578 36.7475 118.838 37.0391 119.37 37.0391H124.557V48.3933C123.14 48.8829 121.729 49.2371 120.328 49.4558C118.937 49.6798 117.067 49.7891 114.724 49.7891Z" fill="#C31D1D"/>
<path d="M144.088 49.7891C140.89 49.7891 138.025 49.2631 135.484 48.2058C132.942 47.1381 130.927 45.3673 129.442 42.8933C127.953 40.4089 127.213 37.0339 127.213 32.7683C127.213 28.7423 127.953 25.5496 129.442 23.185C130.927 20.81 132.942 19.1173 135.484 18.1016C138.025 17.0756 140.89 16.56 144.088 16.56C147.239 16.56 149.828 17.0183 151.859 17.935C153.9 18.8412 155.484 20.0912 156.609 21.685C157.744 23.2683 158.536 25.1329 158.984 27.2683C159.427 29.3933 159.65 31.6537 159.65 34.0391V36.4975H141.63C141.63 37.4714 142.015 38.1746 142.796 38.6016C143.572 39.0183 144.578 39.2631 145.817 39.3308C147.052 39.3881 148.343 39.3308 149.692 39.1641C151.052 38.9871 152.307 38.7475 153.463 38.4558C154.614 38.1641 155.494 37.8881 156.109 37.6225V46.7266C154.692 47.5756 153.369 48.2214 152.15 48.6641C150.942 49.1121 149.703 49.4089 148.442 49.56C147.177 49.7162 145.723 49.7891 144.088 49.7891ZM141.63 32.7683H147.088C147.088 31.8933 146.838 31.1798 146.338 30.6225C145.848 30.0704 145.171 29.7891 144.296 29.7891C143.588 29.7891 142.963 30.0339 142.421 30.5183C141.89 31.0079 141.63 31.7579 141.63 32.7683Z" fill="#C31D1D"/>
<path d="M175.262 50.1225C172.413 50.1225 169.907 49.8412 167.741 49.2891C165.574 48.7371 163.517 48.1537 161.574 47.5391V36.1016C162.324 36.4506 163.303 36.7839 164.512 37.1016C165.73 37.4089 167.017 37.6537 168.366 37.8308C169.725 38.0131 170.934 38.1225 171.991 38.1641C172.532 38.1641 172.803 37.9454 172.803 37.4975C172.803 37.0964 172.559 36.8516 172.074 36.7683C168.517 36.3256 165.772 35.4089 163.845 34.0183C161.928 32.6173 160.97 30.3204 160.97 27.1225C160.97 24.5964 161.621 22.5391 162.928 20.9558C164.23 19.3621 165.991 18.1746 168.199 17.3933C170.418 16.6173 172.928 16.2266 175.72 16.2266C178.329 16.2266 180.866 16.5079 183.324 17.06C185.782 17.6173 187.829 18.2006 189.47 18.81V32.1016C187.079 30.8673 183.689 30.2266 179.303 30.185C178.73 30.185 178.449 30.3881 178.449 30.7891C178.449 31.1798 178.689 31.4246 179.178 31.5183C181.704 31.7839 183.772 32.1954 185.387 32.7475C187.012 33.3048 188.22 34.1433 189.012 35.2683C189.803 36.3933 190.199 38.0183 190.199 40.1433C190.199 42.6746 189.553 44.6746 188.262 46.1433C186.98 47.6016 185.21 48.6329 182.949 49.2266C180.699 49.8204 178.137 50.1225 175.262 50.1225Z" fill="#C31D1D"/>
<path d="M209.077 49.7891C205.879 49.7891 203.014 49.2631 200.473 48.2058C197.931 47.1381 195.915 45.3673 194.431 42.8933C192.942 40.4089 192.202 37.0339 192.202 32.7683C192.202 28.7423 192.942 25.5496 194.431 23.185C195.915 20.81 197.931 19.1173 200.473 18.1016C203.014 17.0756 205.879 16.56 209.077 16.56C212.228 16.56 214.817 17.0183 216.848 17.935C218.889 18.8412 220.473 20.0912 221.598 21.685C222.733 23.2683 223.525 25.1329 223.973 27.2683C224.415 29.3933 224.639 31.6537 224.639 34.0391V36.4975H206.619C206.619 37.4714 207.004 38.1746 207.785 38.6016C208.561 39.0183 209.567 39.2631 210.806 39.3308C212.04 39.3881 213.332 39.3308 214.681 39.1641C216.04 38.9871 217.296 38.7475 218.452 38.4558C219.603 38.1641 220.483 37.8881 221.098 37.6225V46.7266C219.681 47.5756 218.358 48.2214 217.139 48.6641C215.931 49.1121 214.692 49.4089 213.431 49.56C212.165 49.7162 210.712 49.7891 209.077 49.7891ZM206.619 32.7683H212.077C212.077 31.8933 211.827 31.1798 211.327 30.6225C210.837 30.0704 210.16 29.7891 209.285 29.7891C208.577 29.7891 207.952 30.0339 207.41 30.5183C206.879 31.0079 206.619 31.7579 206.619 32.7683Z" fill="#C31D1D"/>
<path d="M226.624 49.7891L227.54 17.4975H238.582L239.124 24.6016C240.582 21.2423 242.707 18.9506 245.499 17.7266C248.29 16.5079 251.363 16.362 254.728 17.2891L253.394 34.2475L243.894 33.31C242.92 33.2162 242.254 33.4141 241.894 33.9141C241.545 34.4037 241.374 35.06 241.374 35.8933L241.644 49.7891H226.624Z" fill="#C31D1D"/>
<path d="M256.061 49.7891L257.124 17.4975H271.207L272.207 49.7891H256.061ZM258.645 10.185C258.645 8.67455 259.15 7.3933 260.165 6.35164C261.191 5.30997 262.457 4.78913 263.957 4.78913C265.468 4.78913 266.749 5.30997 267.79 6.35164C268.832 7.3933 269.353 8.67455 269.353 10.185C269.353 11.6433 268.832 12.8933 267.79 13.935C266.749 14.9766 265.468 15.4975 263.957 15.4975C262.457 15.4975 261.191 14.9766 260.165 13.935C259.15 12.8933 258.645 11.6433 258.645 10.185Z" fill="#C31D1D"/>
<path d="M290.413 49.7891C287.215 49.7891 284.35 49.2631 281.809 48.2058C279.267 47.1381 277.251 45.3673 275.767 42.8933C274.277 40.4089 273.538 37.0339 273.538 32.7683C273.538 28.7423 274.277 25.5496 275.767 23.185C277.251 20.81 279.267 19.1173 281.809 18.1016C284.35 17.0756 287.215 16.56 290.413 16.56C293.564 16.56 296.152 17.0183 298.184 17.935C300.225 18.8412 301.809 20.0912 302.934 21.685C304.069 23.2683 304.861 25.1329 305.309 27.2683C305.751 29.3933 305.975 31.6537 305.975 34.0391V36.4975H287.954C287.954 37.4714 288.34 38.1746 289.121 38.6016C289.897 39.0183 290.902 39.2631 292.142 39.3308C293.376 39.3881 294.668 39.3308 296.017 39.1641C297.376 38.9871 298.631 38.7475 299.788 38.4558C300.939 38.1641 301.819 37.8881 302.434 37.6225V46.7266C301.017 47.5756 299.694 48.2214 298.475 48.6641C297.267 49.1121 296.027 49.4089 294.767 49.56C293.501 49.7162 292.048 49.7891 290.413 49.7891ZM287.954 32.7683H293.413C293.413 31.8933 293.163 31.1798 292.663 30.6225C292.173 30.0704 291.496 29.7891 290.621 29.7891C289.913 29.7891 289.288 30.0339 288.746 30.5183C288.215 31.0079 287.954 31.7579 287.954 32.7683Z" fill="#C31D1D"/>
</g>
<mask id="mask1_1_354" style="mask-type:luminance" maskUnits="userSpaceOnUse" x="82" y="64" width="144" height="15">
<path d="M225.333 64H82.6667V78.6667H225.333V64Z" fill="white"/>
</mask>
<g mask="url(#mask1_1_354)">
<path d="M85.1155 74.4747V67.4331H87.9905C88.4175 67.4331 88.803 67.4747 89.1363 67.5581C89.48 67.631 89.7717 67.7404 90.0113 67.8914C90.2613 68.0477 90.4488 68.2404 90.5738 68.4747C90.7092 68.7143 90.7821 68.9904 90.7821 69.3081C90.7821 69.5893 90.7196 69.8289 90.5946 70.0372C90.48 70.2456 90.303 70.4227 90.053 70.5581C89.803 70.6831 89.4748 70.7664 89.0738 70.8081V70.9747C89.7509 71.0164 90.2509 71.1831 90.5738 71.4747C90.9071 71.756 91.0738 72.1362 91.0738 72.6206C91.0738 73.0372 90.9592 73.3862 90.7405 73.6622C90.5321 73.9279 90.2196 74.131 89.803 74.2664C89.3863 74.407 88.8707 74.4747 88.2613 74.4747H85.1155ZM86.5738 73.2456H88.2405C88.4071 73.2456 88.5634 73.2404 88.7196 73.2247C88.8707 73.1987 89.0113 73.1518 89.1363 73.0789C89.2717 73.0112 89.3759 72.9227 89.4488 72.8081C89.5165 72.6987 89.553 72.5581 89.553 72.3914C89.553 72.2247 89.5217 72.0893 89.4696 71.9747C89.4123 71.8654 89.329 71.7768 89.2196 71.7039C89.1207 71.6206 89.0009 71.5581 88.8655 71.5164C88.7248 71.4747 88.5738 71.4487 88.4071 71.4331C88.2509 71.4227 88.0842 71.4122 87.9071 71.4122H86.5738V73.2456ZM86.5738 70.4122H87.678C87.8967 70.4122 88.0998 70.4018 88.2821 70.3706C88.4748 70.3445 88.6415 70.3029 88.7821 70.2456C88.9332 70.1779 89.053 70.0893 89.1363 69.9747C89.2196 69.8497 89.2613 69.6987 89.2613 69.5164C89.2613 69.3497 89.2248 69.2143 89.1571 69.0997C89.0842 68.9747 88.98 68.8862 88.8446 68.8289C88.7196 68.7768 88.5738 68.7352 88.4071 68.7039C88.2405 68.6622 88.0634 68.6414 87.8863 68.6414H86.5738V70.4122Z" fill="#C31D1D"/>
<path d="M92.7983 74.4747L95.1942 67.4331H97.4025L99.8192 74.4747H98.1317L96.3817 68.6622H96.2358L94.465 74.4747H92.7983ZM94.1317 73.0997V72.0372H98.6733V73.0997H94.1317Z" fill="#C31D1D"/>
<path d="M101.82 74.4747V67.4331H103.34V70.5789C103.7 70.4279 104.033 70.2404 104.34 70.0164C104.658 69.7977 104.945 69.5477 105.195 69.2664C105.445 68.9747 105.653 68.6779 105.82 68.3706C105.986 68.0529 106.101 67.7404 106.174 67.4331H107.924C107.825 67.7977 107.679 68.1518 107.486 68.4956C107.288 68.8445 107.054 69.1727 106.778 69.4747C106.512 69.782 106.221 70.0529 105.903 70.2872C105.596 70.5268 105.278 70.7143 104.945 70.8497V70.9956C105.346 70.9956 105.684 71.0477 105.965 71.1414C106.241 71.2404 106.476 71.381 106.674 71.5581C106.866 71.7404 107.028 71.9487 107.153 72.1831C107.278 72.407 107.387 72.6414 107.486 72.8914L108.028 74.4747H106.299L105.945 73.2247C105.846 72.9331 105.736 72.6779 105.611 72.4539C105.486 72.2352 105.299 72.0581 105.049 71.9331C104.799 71.8081 104.434 71.7456 103.965 71.7456H103.34V74.4747H101.82Z" fill="#C31D1D"/>
<path d="M110.118 74.4747V67.4331H111.66V74.4747H110.118ZM111.181 74.4747V73.2247H115.452V74.4747H111.181ZM111.181 71.4956V70.3497H114.931V71.4956H111.181ZM111.181 68.6831V67.4331H115.431V68.6831H111.181Z" fill="#C31D1D"/>
<path d="M117.692 74.4747V67.4331H120.546C120.879 67.4331 121.192 67.4643 121.483 67.5164C121.785 67.5737 122.056 67.657 122.296 67.7664C122.546 67.8654 122.759 67.9956 122.942 68.1622C123.119 68.3289 123.254 68.5268 123.338 68.7456C123.431 68.9695 123.483 69.2195 123.483 69.4956C123.483 69.7456 123.442 69.9747 123.358 70.1831C123.285 70.381 123.176 70.5529 123.025 70.7039C122.869 70.8602 122.671 70.9852 122.421 71.0789C122.181 71.1779 121.905 71.2404 121.588 71.2664V71.4122C121.963 71.4539 122.259 71.5477 122.483 71.6831C122.702 71.8081 122.879 71.9852 123.004 72.2039C123.129 72.4279 123.239 72.6987 123.338 73.0164L123.733 74.4747H122.046L121.733 73.1414C121.66 72.8654 121.567 72.6414 121.442 72.4747C121.327 72.3081 121.181 72.1935 121.004 72.1206C120.822 72.0529 120.598 72.0164 120.338 72.0164H119.213V74.4747H117.692ZM119.213 70.8497H120.192C120.317 70.8497 120.447 70.8497 120.588 70.8497C120.739 70.8393 120.89 70.8185 121.046 70.7872C121.197 70.7612 121.338 70.7143 121.463 70.6414C121.588 70.5581 121.692 70.4487 121.775 70.3081C121.858 70.157 121.9 69.9695 121.9 69.7456C121.9 69.5268 121.858 69.3445 121.775 69.2039C121.692 69.0529 121.588 68.9435 121.463 68.8706C121.348 68.8029 121.223 68.7456 121.088 68.7039C120.963 68.6622 120.838 68.6414 120.713 68.6414C120.598 68.631 120.509 68.6206 120.442 68.6206H119.213V70.8497Z" fill="#C31D1D"/>
<path d="M127.78 74.4747V72.2456L125.238 67.4331H127.072L128.53 70.8497H128.572L130.009 67.4331H131.843L129.322 72.2247V74.4747H127.78Z" fill="#C31D1D"/>
<path d="M142.443 74.6206C142.052 74.6206 141.677 74.5372 141.318 74.3706C140.953 74.1935 140.614 73.9487 140.297 73.6414C139.974 73.3393 139.677 72.9956 139.401 72.6206C139.135 72.2456 138.906 71.8602 138.713 71.4539C138.515 71.0529 138.364 70.6622 138.255 70.2872C138.14 69.9018 138.088 69.5529 138.088 69.2456C138.088 68.8862 138.161 68.5581 138.318 68.2664C138.469 67.9747 138.698 67.7404 139.005 67.5581C139.323 67.3654 139.734 67.2664 140.234 67.2664C140.677 67.2664 141.052 67.3445 141.359 67.4956C141.661 67.6518 141.89 67.8497 142.047 68.0997C142.198 68.3497 142.276 68.631 142.276 68.9331C142.276 69.1831 142.213 69.4227 142.088 69.6414C141.974 69.8497 141.781 70.0529 141.505 70.2456C141.239 70.4279 140.88 70.5737 140.422 70.6831L140.318 70.4539C140.495 70.2612 140.635 70.0581 140.734 69.8497C140.828 69.6414 140.88 69.4331 140.88 69.2247C140.88 69.0164 140.828 68.8445 140.734 68.7039C140.651 68.5529 140.489 68.4747 140.255 68.4747C140.099 68.4747 139.974 68.5112 139.88 68.5789C139.797 68.6518 139.724 68.7404 139.672 68.8497C139.63 68.9643 139.609 69.0945 139.609 69.2456C139.609 69.4279 139.651 69.657 139.734 69.9331C139.818 70.2143 139.927 70.506 140.068 70.8081C140.203 71.1154 140.364 71.4227 140.547 71.7247C140.724 72.032 140.922 72.3081 141.13 72.5581C141.338 72.7977 141.547 72.9904 141.755 73.1414C141.974 73.282 142.198 73.3497 142.422 73.3497C142.557 73.3497 142.672 73.3081 142.755 73.2247C142.849 73.1414 142.901 73.0477 142.901 72.9331C142.901 72.7977 142.844 72.657 142.734 72.5164C142.62 72.3654 142.463 72.2247 142.255 72.0997C142.047 71.9747 141.781 71.8862 141.463 71.8289V70.6622H143.943V71.7664L142.068 71.4747V71.6622C142.786 71.8029 143.318 71.9956 143.651 72.2456C143.995 72.4956 144.172 72.8393 144.172 73.2664C144.172 73.5477 144.109 73.7768 143.984 73.9539C143.859 74.1362 143.698 74.2768 143.505 74.3706C143.323 74.4695 143.135 74.5268 142.943 74.5581C142.745 74.5997 142.578 74.6206 142.443 74.6206ZM138.588 74.6206C138.255 74.6206 137.943 74.5581 137.651 74.4331C137.37 74.3081 137.151 74.1206 136.984 73.8706C136.818 73.6206 136.734 73.3237 136.734 72.9747C136.734 72.6414 136.802 72.3654 136.943 72.1414C137.078 71.907 137.255 71.7195 137.463 71.5789C137.682 71.4279 137.911 71.3081 138.151 71.2247C138.401 71.1414 138.614 71.0893 138.797 71.0581L138.88 71.3497C138.64 71.5164 138.463 71.7039 138.338 71.9122C138.213 72.1102 138.151 72.3185 138.151 72.5372C138.151 72.7612 138.203 72.9539 138.318 73.1206C138.427 73.2768 138.573 73.4018 138.755 73.4956C138.948 73.5789 139.156 73.6206 139.38 73.6206C139.557 73.6206 139.719 73.5945 139.859 73.5372C139.995 73.4695 140.135 73.381 140.276 73.2664L140.38 73.3497C140.281 73.6154 140.151 73.8445 139.984 74.0372C139.828 74.2352 139.635 74.381 139.401 74.4747C139.177 74.5685 138.906 74.6206 138.588 74.6206Z" fill="#C31D1D"/>
<path d="M153.028 74.6206C152.471 74.6206 151.976 74.5425 151.549 74.3914C151.132 74.2247 150.768 73.9904 150.466 73.6831C150.174 73.381 149.95 73.006 149.799 72.5581C149.643 72.1154 149.57 71.5997 149.57 71.0164C149.57 70.4331 149.643 69.9122 149.799 69.4539C149.966 68.9956 150.195 68.6102 150.487 68.2872C150.778 67.9539 151.122 67.7039 151.528 67.5372C151.945 67.3706 152.409 67.2872 152.924 67.2872C153.341 67.2872 153.716 67.3445 154.049 67.4539C154.393 67.5685 154.685 67.7247 154.924 67.9331C155.159 68.131 155.341 68.3706 155.466 68.6622C155.601 68.9435 155.674 69.256 155.674 69.5997L154.237 69.9331C154.247 69.631 154.185 69.381 154.049 69.1831C153.924 68.9747 153.757 68.8185 153.549 68.7039C153.351 68.5945 153.132 68.5372 152.882 68.5372C152.674 68.5372 152.466 68.5893 152.257 68.6831C152.049 68.7664 151.862 68.907 151.695 69.0997C151.539 69.282 151.414 69.5268 151.32 69.8289C151.221 70.1362 151.174 70.506 151.174 70.9331C151.174 71.4904 151.247 71.9487 151.403 72.3081C151.57 72.6727 151.789 72.9435 152.07 73.1206C152.362 73.2872 152.685 73.3706 153.049 73.3706C153.435 73.3706 153.737 73.2977 153.945 73.1414C154.164 72.9747 154.325 72.7612 154.424 72.4956C154.518 72.2352 154.57 71.9539 154.57 71.6622L155.924 71.8706C155.935 72.2456 155.888 72.5997 155.778 72.9331C155.664 73.2664 155.497 73.5685 155.278 73.8289C155.054 74.0789 154.757 74.2768 154.382 74.4122C154.007 74.5477 153.554 74.6206 153.028 74.6206Z" fill="#C31D1D"/>
<path d="M157.524 74.4747L159.92 67.4331H162.128L164.545 74.4747H162.858L161.108 68.6622H160.962L159.191 74.4747H157.524ZM158.858 73.0997V72.0372H163.399V73.0997H158.858Z" fill="#C31D1D"/>
<path d="M166.545 74.4747V67.4331H168.066V70.5789C168.426 70.4279 168.759 70.2404 169.066 70.0164C169.384 69.7977 169.67 69.5477 169.92 69.2664C170.17 68.9747 170.379 68.6779 170.545 68.3706C170.712 68.0529 170.827 67.7404 170.9 67.4331H172.65C172.551 67.7977 172.405 68.1518 172.212 68.4956C172.014 68.8445 171.78 69.1727 171.504 69.4747C171.238 69.782 170.947 70.0529 170.629 70.2872C170.322 70.5268 170.004 70.7143 169.67 70.8497V70.9956C170.072 70.9956 170.41 71.0477 170.691 71.1414C170.967 71.2404 171.202 71.381 171.4 71.5581C171.592 71.7404 171.754 71.9487 171.879 72.1831C172.004 72.407 172.113 72.6414 172.212 72.8914L172.754 74.4747H171.025L170.67 73.2247C170.572 72.9331 170.462 72.6779 170.337 72.4539C170.212 72.2352 170.025 72.0581 169.775 71.9331C169.525 71.8081 169.16 71.7456 168.691 71.7456H168.066V74.4747H166.545Z" fill="#C31D1D"/>
<path d="M174.844 74.4747V67.4331H176.386V74.4747H174.844ZM175.907 74.4747V73.2247H180.178V74.4747H175.907ZM175.907 71.4956V70.3497H179.657V71.4956H175.907ZM175.907 68.6831V67.4331H180.157V68.6831H175.907Z" fill="#C31D1D"/>
<path d="M188.657 74.6206C188.198 74.6206 187.782 74.5685 187.407 74.4747C187.042 74.3914 186.73 74.2612 186.469 74.0789C186.203 73.8862 186 73.6518 185.865 73.3706C185.724 73.0945 185.646 72.7768 185.636 72.4122L187.011 71.9956C187.021 72.3289 187.099 72.5997 187.24 72.8081C187.391 73.0164 187.594 73.1779 187.844 73.2872C188.105 73.3862 188.396 73.4331 188.719 73.4331C189.021 73.4331 189.282 73.4018 189.49 73.3289C189.709 73.2456 189.875 73.1414 189.99 73.0164C190.115 72.881 190.177 72.7352 190.177 72.5789C190.177 72.4018 190.099 72.256 189.948 72.1414C189.808 72.0164 189.615 71.9122 189.365 71.8289C189.125 71.7456 188.849 71.6727 188.532 71.5997C188.198 71.532 187.865 71.4487 187.532 71.3497C187.209 71.2404 186.912 71.1102 186.636 70.9539C186.37 70.8029 186.157 70.5997 185.99 70.3497C185.834 70.0997 185.761 69.7872 185.761 69.4122C185.761 68.9852 185.865 68.6154 186.073 68.3081C186.292 67.9904 186.615 67.7404 187.032 67.5581C187.448 67.381 187.948 67.2872 188.532 67.2872C189.115 67.2872 189.615 67.381 190.032 67.5581C190.459 67.7404 190.792 67.9904 191.032 68.3081C191.266 68.631 191.386 69.0112 191.386 69.4539L190.011 69.8081C190.011 69.5893 189.974 69.3914 189.907 69.2247C189.834 69.0581 189.74 68.9227 189.615 68.8081C189.49 68.6987 189.328 68.6154 189.136 68.5581C188.953 68.506 188.745 68.4747 188.511 68.4747C188.23 68.4747 187.995 68.5112 187.802 68.5789C187.62 68.6518 187.474 68.7456 187.365 68.8706C187.266 68.9852 187.219 69.1206 187.219 69.2872C187.219 69.4852 187.292 69.6414 187.448 69.7664C187.599 69.881 187.808 69.9747 188.073 70.0581C188.334 70.1414 188.62 70.2195 188.927 70.2872C189.23 70.3602 189.542 70.4435 189.865 70.5372C190.183 70.6362 190.474 70.7612 190.74 70.9122C191.016 71.0685 191.23 71.2768 191.386 71.5372C191.552 71.7872 191.636 72.1154 191.636 72.5164C191.636 72.9487 191.516 73.3237 191.282 73.6414C191.058 73.9643 190.724 74.2039 190.282 74.3706C189.834 74.5372 189.292 74.6206 188.657 74.6206Z" fill="#C31D1D"/>
<path d="M195.364 74.4747V67.4331H196.905V74.4747H195.364ZM193.343 68.7247V67.4331H198.947V68.7247H193.343Z" fill="#C31D1D"/>
<path d="M204.009 74.6206C203.493 74.6206 203.035 74.5425 202.634 74.3914C202.228 74.2247 201.884 73.9904 201.592 73.6831C201.311 73.381 201.097 73.006 200.946 72.5581C200.79 72.0997 200.717 71.5789 200.717 70.9956C200.717 70.1622 200.863 69.4747 201.155 68.9331C201.446 68.381 201.842 67.9695 202.342 67.7039C202.842 67.4279 203.41 67.2872 204.05 67.2872C204.55 67.2872 204.998 67.3706 205.405 67.5372C205.806 67.6935 206.144 67.9227 206.425 68.2247C206.717 68.532 206.936 68.9122 207.092 69.3706C207.243 69.8289 207.321 70.3602 207.321 70.9539C207.321 71.5685 207.243 72.0997 207.092 72.5581C206.936 73.006 206.717 73.3862 206.425 73.7039C206.134 74.0112 205.78 74.2404 205.363 74.3914C204.957 74.5425 204.509 74.6206 204.009 74.6206ZM204.05 73.3914C204.243 73.3914 204.436 73.3602 204.634 73.2872C204.842 73.2195 205.03 73.0997 205.196 72.9331C205.363 72.756 205.493 72.5112 205.592 72.2039C205.701 71.9018 205.759 71.5112 205.759 71.0372C205.759 70.4695 205.681 70.006 205.53 69.6414C205.389 69.2664 205.186 68.9956 204.925 68.8289C204.66 68.6518 204.353 68.5581 204.009 68.5581C203.826 68.5581 203.634 68.5945 203.425 68.6622C203.228 68.7352 203.04 68.8602 202.863 69.0372C202.696 69.2039 202.556 69.4487 202.446 69.7664C202.347 70.0737 202.3 70.4747 202.3 70.9747C202.3 71.4331 202.347 71.8237 202.446 72.1414C202.54 72.4487 202.675 72.6987 202.842 72.8914C203.009 73.0737 203.196 73.2039 203.405 73.2872C203.613 73.3602 203.826 73.3914 204.05 73.3914Z" fill="#C31D1D"/>
<path d="M209.661 74.4747V67.4331H212.515C212.848 67.4331 213.161 67.4643 213.452 67.5164C213.754 67.5737 214.025 67.657 214.265 67.7664C214.515 67.8654 214.728 67.9956 214.911 68.1622C215.088 68.3289 215.223 68.5268 215.306 68.7456C215.4 68.9695 215.452 69.2195 215.452 69.4956C215.452 69.7456 215.411 69.9747 215.327 70.1831C215.254 70.381 215.145 70.5529 214.994 70.7039C214.838 70.8602 214.64 70.9852 214.39 71.0789C214.15 71.1779 213.874 71.2404 213.556 71.2664V71.4122C213.931 71.4539 214.228 71.5477 214.452 71.6831C214.671 71.8081 214.848 71.9852 214.973 72.2039C215.098 72.4279 215.207 72.6987 215.306 73.0164L215.702 74.4747H214.015L213.702 73.1414C213.629 72.8654 213.536 72.6414 213.411 72.4747C213.296 72.3081 213.15 72.1935 212.973 72.1206C212.791 72.0529 212.567 72.0164 212.306 72.0164H211.181V74.4747H209.661ZM211.181 70.8497H212.161C212.286 70.8497 212.416 70.8497 212.556 70.8497C212.707 70.8393 212.858 70.8185 213.015 70.7872C213.166 70.7612 213.306 70.7143 213.431 70.6414C213.556 70.5581 213.661 70.4487 213.744 70.3081C213.827 70.157 213.869 69.9695 213.869 69.7456C213.869 69.5268 213.827 69.3445 213.744 69.2039C213.661 69.0529 213.556 68.9435 213.431 68.8706C213.317 68.8029 213.192 68.7456 213.056 68.7039C212.931 68.6622 212.806 68.6414 212.681 68.6414C212.567 68.631 212.478 68.6206 212.411 68.6206H211.181V70.8497Z" fill="#C31D1D"/>
<path d="M217.874 74.4747V67.4331H219.416V74.4747H217.874ZM218.936 74.4747V73.2247H223.207V74.4747H218.936ZM218.936 71.4956V70.3497H222.686V71.4956H218.936ZM218.936 68.6831V67.4331H223.186V68.6831H218.936Z" fill="#C31D1D"/>
</g>
</svg>
