<svg width="218" height="64" viewBox="0 0 218 64" fill="none" xmlns="http://www.w3.org/2000/svg">
<mask id="mask0_323_228" style="mask-type:luminance" maskUnits="userSpaceOnUse" x="0" y="0" width="218" height="64">
<path d="M217.333 0H0V64H217.333V0Z" fill="white"/>
</mask>
<g mask="url(#mask0_323_228)">
<path d="M17.0573 49.7891C14.2083 49.7891 11.7031 49.5079 9.53646 48.9558C7.36979 48.4037 5.3125 47.8204 3.36979 47.2058V35.7683C4.11979 36.1173 5.09896 36.4506 6.30729 36.7683C7.52604 37.0756 8.8125 37.3204 10.1615 37.4975C11.5208 37.6798 12.7292 37.7891 13.7865 37.8308C14.3281 37.8308 14.599 37.6121 14.599 37.1641C14.599 36.7631 14.3542 36.5183 13.8698 36.435C10.3125 35.9923 7.56771 35.0756 5.64062 33.685C3.72396 32.2839 2.76562 29.9871 2.76562 26.7891C2.76562 24.2631 3.41667 22.2058 4.72396 20.6225C6.02604 19.0287 7.78646 17.8412 9.99479 17.06C12.2135 16.2839 14.724 15.8933 17.5156 15.8933C20.125 15.8933 22.6615 16.1746 25.1198 16.7266C27.5781 17.2839 29.625 17.8673 31.2656 18.4766V31.7683C28.875 30.5339 25.4844 29.8933 21.099 29.8516C20.526 29.8516 20.2448 30.0548 20.2448 30.4558C20.2448 30.8464 20.4844 31.0912 20.974 31.185C23.5 31.4506 25.5677 31.8621 27.1823 32.4141C28.8073 32.9714 30.0156 33.81 30.8073 34.935C31.599 36.06 31.9948 37.685 31.9948 39.81C31.9948 42.3412 31.349 44.3412 30.0573 45.81C28.776 47.2683 27.0052 48.2996 24.7448 48.8933C22.4948 49.4871 19.9323 49.7891 17.0573 49.7891Z" fill="#C31D1D"/>
<path d="M34.6621 49.4558L35.7246 17.1641H49.8079L50.8079 49.4558H34.6621ZM37.2454 9.85164C37.2454 8.34123 37.7507 7.05998 38.7663 6.01831C39.7923 4.97664 41.0579 4.45581 42.5579 4.45581C44.0684 4.45581 45.3496 4.97664 46.3913 6.01831C47.4329 7.05998 47.9538 8.34123 47.9538 9.85164C47.9538 11.31 47.4329 12.56 46.3913 13.6016C45.3496 14.6433 44.0684 15.1641 42.5579 15.1641C41.0579 15.1641 39.7923 14.6433 38.7663 13.6016C37.7507 12.56 37.2454 11.31 37.2454 9.85164Z" fill="#C31D1D"/>
<path d="M54.7188 41.9558C54.7188 41.9558 55.1615 42.1589 56.0521 42.56C56.9375 42.9506 58.2031 43.3464 59.8438 43.7475C61.4792 44.1381 63.4115 44.3829 65.6354 44.4766C67.2188 44.5183 68.4167 44.2579 69.2396 43.685C70.0573 43.1016 70.6146 42.4037 70.9062 41.5808C71.1979 40.7631 71.3646 40.0391 71.4062 39.4141C70.474 40.1225 69.375 40.7162 68.1146 41.185C66.849 41.6433 65.375 41.9037 63.6979 41.9558C61.2656 42.0391 59.3646 41.7266 57.9896 41.0183C56.6146 40.31 55.599 39.3464 54.9479 38.1225C54.3073 36.9037 53.8958 35.5808 53.7188 34.1641C53.5521 32.7475 53.4688 31.3829 53.4688 30.06C53.4688 27.0496 54.1771 24.5756 55.5938 22.6433C57.0104 20.7162 58.9688 19.2996 61.4688 18.3933C63.9688 17.4766 66.8333 17.0183 70.0729 17.0183H86.9688V30.9141C86.9688 34.5964 86.8958 37.6329 86.7604 40.0183C86.6198 42.4089 86.2708 44.3933 85.7188 45.9766C85.1771 47.5496 84.3021 48.9089 83.0938 50.06C81.8958 51.211 80.2396 52.3829 78.1146 53.5808C76.4323 54.5496 74.5521 55.1746 72.4688 55.4558C70.3854 55.7475 68.3021 55.8204 66.2188 55.685C64.1354 55.56 62.2292 55.3308 60.5104 54.9975C58.7865 54.6641 57.3906 54.3412 56.3229 54.0391C55.25 53.7319 54.7188 53.5808 54.7188 53.5808V41.9558ZM67.3646 32.2475C67.3646 33.0808 67.6458 33.6954 68.2188 34.0808C68.7865 34.4558 69.4948 34.6433 70.3438 34.6433C71.2292 34.6433 71.9583 34.4454 72.5312 34.0391C73.1146 33.6381 73.4062 33.0391 73.4062 32.2475C73.4062 31.5391 73.1146 30.9975 72.5312 30.6225C71.9583 30.2475 71.2292 30.06 70.3438 30.06C69.4948 30.06 68.7865 30.2162 68.2188 30.5183C67.6458 30.8256 67.3646 31.4037 67.3646 32.2475Z" fill="#C31D1D"/>
<path d="M89.6172 49.4557L90.5339 17.1641H101.576L102.117 24.2682C102.643 23.1172 103.372 21.9349 104.305 20.7266C105.232 19.5078 106.451 18.4714 107.951 17.6224C109.461 16.7786 111.326 16.3516 113.534 16.3516C116.06 16.3516 118.039 16.8464 119.471 17.8307C120.914 18.8047 121.971 20.0755 122.638 21.6432C123.305 23.2161 123.727 24.9297 123.909 26.7891C124.086 28.6536 124.18 30.4922 124.18 32.3099V49.4557H108.68L108.617 36.0391C108.617 35.112 108.409 34.4036 107.992 33.9141C107.576 33.4141 107.076 33.1224 106.492 33.0391C105.919 32.9557 105.419 33.0807 104.992 33.4141C104.576 33.7474 104.367 34.2891 104.367 35.0391L104.638 49.4557H89.6172Z" fill="#C31D1D"/>
<path d="M153.402 50.185C150.871 50.185 148.887 49.6954 147.444 48.7266C146.012 47.7579 144.965 46.4871 144.298 44.9141C143.632 43.3308 143.204 41.6016 143.027 39.7266C142.861 37.8412 142.777 35.9871 142.777 34.1641V17.0183H158.257L158.382 30.9766C158.382 31.8256 158.553 32.4506 158.902 32.8516C159.262 33.2423 159.908 33.435 160.84 33.435C161.241 33.435 161.616 33.2631 161.965 32.9141C162.324 32.5548 162.507 32.0912 162.507 31.5183L162.236 17.0183H177.402L176.402 49.3933H165.298L164.84 42.4141C164.309 43.5704 163.569 44.7579 162.611 45.9766C161.652 47.185 160.428 48.1954 158.944 48.9975C157.47 49.7891 155.621 50.185 153.402 50.185Z" fill="#C31D1D"/>
<path d="M180.661 58.6224L180.057 34.4974L180.515 17.0807H191.619L191.952 20.4141C192.838 19.2214 194.015 18.2161 195.473 17.3932C196.932 16.5755 198.744 16.1641 200.911 16.1641C205.255 16.1641 208.64 17.487 211.057 20.1224C213.473 22.7474 214.63 26.7422 214.536 32.1016C214.536 35.7005 214.109 38.7995 213.265 41.3932C212.432 43.9766 211.025 45.9557 209.057 47.3307C207.083 48.7057 204.395 49.3932 200.994 49.3932C199.255 49.3932 197.734 49.1536 196.432 48.6641C195.124 48.1797 193.984 47.5339 193.015 46.7266L192.682 58.6224H180.661ZM194.869 35.8307C194.869 36.8464 195.166 37.612 195.765 38.1224C196.359 38.638 197.083 38.8932 197.932 38.8932C198.775 38.8932 199.484 38.6641 200.057 38.2057C200.624 37.737 200.911 36.9453 200.911 35.8307C200.911 34.763 200.624 34.0182 200.057 33.6016C199.484 33.1849 198.775 32.9766 197.932 32.9766C197.083 32.9766 196.359 33.237 195.765 33.7474C195.166 34.2474 194.869 34.9453 194.869 35.8307Z" fill="#C31D1D"/>
</g>
</svg>
